ffmpeg started on 2025-05-05 at 10:17:15
Report written to "D:\Convert\FFMetrics\reports\psnr_report-6.txt"
Log level: 32
Command line:
ffmpeg -hide_banner -nostdin -i "G:\\\xc0\xed\xe8\xec\xe5\\\xce\xed\xe3\xee\xe8\xed\xe3\xe8\\!_35_\xcb\xe5\xf2\xee_2024\\JamClub-1\\\xcb\xfe\xe4\xe8 \xef\xee\xe4\xe7\xe5\xec\xe5\xeb\xfc\xff\\JamClub_Dungeon_no_Naka_no_Hito_01_1080p_HEVC.mkv" -i "G:\\\xc0\xed\xe8\xec\xe5\\\xce\xed\xe3\xee\xe8\xed\xe3\xe8\\!_35_\xcb\xe5\xf2\xee_2024\\JamClub-1\\\xcb\xfe\xe4\xe8 \xef\xee\xe4\xe7\xe5\xec\xe5\xeb\xfc\xff\\JamClub_Dungeon_no_Naka_no_Hito_01_1080p.mp4" -lavfi "[0:v]settb=AVTB,setpts=PTS-STARTPTS,format=pix_fmts=yuv420p10,fps=24000/1001,scale=1920:1080:flags=bicubic[main];[1:v]settb=AVTB,setpts=PTS-STARTPTS,format=pix_fmts=yuv420p,fps=24000/1001,scale=1920:1080:flags=bicubic[ref];[main][ref]psnr=eof_action=endall:stats_file='D\\:/Convert/FFMetrics/logs/psnr_logfile-6.txt'" -f null -
Input #0, matroska,webm, from 'G:\Аниме\Онгоинги\!_35_Лето_2024\JamClub-1\Люди подземелья\JamClub_Dungeon_no_Naka_no_Hito_01_1080p_HEVC.mkv':
  Metadata:
    COMPATIBLE_BRANDS: isomiso2avc1mp41
    MAJOR_BRAND     : isom
    MINOR_VERSION   : 512
    ENCODER         : Lavf61.7.100
  Duration: 00:24:51.74, start: -0.021000, bitrate: 1356 kb/s
  Stream #0:0: Video: hevc (Main 10), yuv420p10le(tv, bt709, progressive), 1920x1080 [SAR 1:1 DAR 16:9], 23.98 fps, 23.98 tbr, 1k tbn (default)
      Metadata:
        HANDLER_NAME    : VideoHandler
        VENDOR_ID       : [0][0][0][0]
        ENCODER         : Lavc61.19.100 libx265
        BPS             : 1158800
        DURATION        : 00:24:51.614708333
        NUMBER_OF_FRAMES: 35763
        NUMBER_OF_BYTES : 216060420
        _STATISTICS_WRITING_APP: mkvpropedit v66.0.0 ('Josie') 64-bit
        _STATISTICS_WRITING_DATE_UTC: 2025-05-04 12:43:42
        _STATISTICS_TAGS: BPS DURATION NUMBER_OF_FRAMES NUMBER_OF_BYTES
  Stream #0:1(eng): Audio: aac (LC), 48000 Hz, stereo, fltp (default)
      Metadata:
        HANDLER_NAME    : SoundHandler
        VENDOR_ID       : [0][0][0][0]
        ENCODER         : Lavc61.19.100 aac
        BPS             : 193522
        DURATION        : 00:24:51.715000000
        NUMBER_OF_FRAMES: 69925
        NUMBER_OF_BYTES : 36084999
        _STATISTICS_WRITING_APP: mkvpropedit v66.0.0 ('Josie') 64-bit
        _STATISTICS_WRITING_DATE_UTC: 2025-05-04 12:43:42
        _STATISTICS_TAGS: BPS DURATION NUMBER_OF_FRAMES NUMBER_OF_BYTES
Input #1, mov,mp4,m4a,3gp,3g2,mj2, from 'G:\Аниме\Онгоинги\!_35_Лето_2024\JamClub-1\Люди подземелья\JamClub_Dungeon_no_Naka_no_Hito_01_1080p.mp4':
  Metadata:
    major_brand     : isom
    minor_version   : 512
    compatible_brands: isomiso2avc1mp41
    encoder         : Lavf60.16.100
  Duration: 00:24:51.72, start: 0.000000, bitrate: 4179 kb/s
  Stream #1:0[0x1](und): Video: h264 (High) (avc1 / 0x31637661), yuv420p(tv, bt709, progressive), 1920x1080 [SAR 1:1 DAR 16:9], 3981 kb/s, 23.98 fps, 23.98 tbr, 90k tbn (default)
      Metadata:
        handler_name    : VideoHandler
        vendor_id       : [0][0][0][0]
  Stream #1:1[0x2](eng): Audio: aac (LC) (mp4a / 0x6134706D), 48000 Hz, stereo, fltp, 191 kb/s (default)
      Metadata:
        handler_name    : SoundHandler
        vendor_id       : [0][0][0][0]
Stream mapping:
  Stream #0:0 (hevc) -> settb:default
  Stream #1:0 (h264) -> settb:default
  psnr:default -> Stream #0:0 (wrapped_avframe)
  Stream #0:1 -> #0:1 (aac (native) -> pcm_s16le (native))
Output #0, null, to 'pipe:':
  Metadata:
    COMPATIBLE_BRANDS: isomiso2avc1mp41
    MAJOR_BRAND     : isom
    MINOR_VERSION   : 512
    encoder         : Lavf61.7.100
  Stream #0:0: Video: wrapped_avframe, yuv420p10le(tv, bt709, progressive), 1920x1080 [SAR 1:1 DAR 16:9], q=2-31, 200 kb/s, 23.98 fps, 23.98 tbn
      Metadata:
        encoder         : Lavc61.19.100 wrapped_avframe
  Stream #0:1(eng): Audio: pcm_s16le, 48000 Hz, stereo, s16, 1536 kb/s (default)
      Metadata:
        HANDLER_NAME    : SoundHandler
        VENDOR_ID       : [0][0][0][0]
        _STATISTICS_TAGS: BPS DURATION NUMBER_OF_FRAMES NUMBER_OF_BYTES
        BPS             : 193522
        DURATION        : 00:24:51.715000000
        NUMBER_OF_FRAMES: 69925
        NUMBER_OF_BYTES : 36084999
        _STATISTICS_WRITING_APP: mkvpropedit v66.0.0 ('Josie') 64-bit
        _STATISTICS_WRITING_DATE_UTC: 2025-05-04 12:43:42
        encoder         : Lavc61.19.100 pcm_s16le
frame=  117 fps=0.0 q=-0.0 size=N/A time=00:00:04.87 bitrate=N/A speed=9.64x    frame=  283 fps=274 q=-0.0 size=N/A time=00:00:11.80 bitrate=N/A speed=11.4x    frame=  484 fps=314 q=-0.0 size=N/A time=00:00:20.18 bitrate=N/A speed=13.1x    frame=  731 fps=354 q=-0.0 size=N/A time=00:00:30.48 bitrate=N/A speed=14.8x    frame=  934 fps=363 q=-0.0 size=N/A time=00:00:38.95 bitrate=N/A speed=15.1x    frame= 1162 fps=377 q=-0.0 size=N/A time=00:00:48.46 bitrate=N/A speed=15.7x    frame= 1384 fps=383 q=-0.0 size=N/A time=00:00:57.72 bitrate=N/A speed=  16x    frame= 1628 fps=395 q=-0.0 size=N/A time=00:01:07.90 bitrate=N/A speed=16.5x    frame= 1862 fps=401 q=-0.0 size=N/A time=00:01:17.66 bitrate=N/A speed=16.7x    frame= 2060 fps=399 q=-0.0 size=N/A time=00:01:25.91 bitrate=N/A speed=16.6x    frame= 2234 fps=392 q=-0.0 size=N/A time=00:01:33.17 bitrate=N/A speed=16.4x    frame= 2426 fps=391 q=-0.0 size=N/A time=00:01:41.18 bitrate=N/A speed=16.3x    frame= 2687 fps=400 q=-0.0 size=N/A time=00:01:52.07 bitrate=N/A speed=16.7x    frame= 2920 fps=403 q=-0.0 size=N/A time=00:02:01.78 bitrate=N/A speed=16.8x    frame= 3167 fps=409 q=-0.0 size=N/A time=00:02:12.09 bitrate=N/A speed=17.1x    frame= 3409 fps=412 q=-0.0 size=N/A time=00:02:22.18 bitrate=N/A speed=17.2x    frame= 3609 fps=411 q=-0.0 size=N/A time=00:02:30.52 bitrate=N/A speed=17.2x    frame= 3805 fps=409 q=-0.0 size=N/A time=00:02:38.70 bitrate=N/A speed=17.1x    frame= 4006 fps=408 q=-0.0 size=N/A time=00:02:47.08 bitrate=N/A speed=  17x    frame= 4220 fps=409 q=-0.0 size=N/A time=00:02:56.00 bitrate=N/A speed=  17x    frame= 4434 fps=409 q=-0.0 size=N/A time=00:03:04.93 bitrate=N/A speed=17.1x    frame= 4636 fps=408 q=-0.0 size=N/A time=00:03:13.35 bitrate=N/A speed=  17x    frame= 4799 fps=404 q=-0.0 size=N/A time=00:03:20.15 bitrate=N/A speed=16.9x    frame= 4974 fps=402 q=-0.0 size=N/A time=00:03:27.45 bitrate=N/A speed=16.8x    frame= 5195 fps=403 q=-0.0 size=N/A time=00:03:36.67 bitrate=N/A speed=16.8x    frame= 5412 fps=403 q=-0.0 size=N/A time=00:03:45.72 bitrate=N/A speed=16.8x    frame= 5623 fps=403 q=-0.0 size=N/A time=00:03:54.52 bitrate=N/A speed=16.8x    frame= 5859 fps=406 q=-0.0 size=N/A time=00:04:04.36 bitrate=N/A speed=16.9x    frame= 6073 fps=406 q=-0.0 size=N/A time=00:04:13.29 bitrate=N/A speed=16.9x    frame= 6337 fps=409 q=-0.0 size=N/A time=00:04:24.30 bitrate=N/A speed=17.1x    frame= 6587 fps=412 q=-0.0 size=N/A time=00:04:34.73 bitrate=N/A speed=17.2x    frame= 6822 fps=413 q=-0.0 size=N/A time=00:04:44.53 bitrate=N/A speed=17.2x    frame= 7092 fps=416 q=-0.0 size=N/A time=00:04:55.79 bitrate=N/A speed=17.4x    frame= 7341 fps=418 q=-0.0 size=N/A time=00:05:06.18 bitrate=N/A speed=17.5x    frame= 7592 fps=420 q=-0.0 size=N/A time=00:05:16.64 bitrate=N/A speed=17.5x    frame= 7844 fps=422 q=-0.0 size=N/A time=00:05:27.16 bitrate=N/A speed=17.6x    frame= 8119 fps=425 q=-0.0 size=N/A time=00:05:38.62 bitrate=N/A speed=17.7x    frame= 8358 fps=426 q=-0.0 size=N/A time=00:05:48.59 bitrate=N/A speed=17.8x    frame= 8533 fps=424 q=-0.0 size=N/A time=00:05:55.89 bitrate=N/A speed=17.7x    frame= 8771 fps=425 q=-0.0 size=N/A time=00:06:05.82 bitrate=N/A speed=17.7x    frame= 9031 fps=427 q=-0.0 size=N/A time=00:06:16.66 bitrate=N/A speed=17.8x    frame= 9297 fps=429 q=-0.0 size=N/A time=00:06:27.76 bitrate=N/A speed=17.9x    frame= 9550 fps=430 q=-0.0 size=N/A time=00:06:38.31 bitrate=N/A speed=  18x    frame= 9769 fps=430 q=-0.0 size=N/A time=00:06:47.44 bitrate=N/A speed=  18x    frame= 9962 fps=429 q=-0.0 size=N/A time=00:06:55.49 bitrate=N/A speed=17.9x    frame=10172 fps=428 q=-0.0 size=N/A time=00:07:04.25 bitrate=N/A speed=17.9x    frame=10346 fps=426 q=-0.0 size=N/A time=00:07:11.51 bitrate=N/A speed=17.8x    frame=10613 fps=428 q=-0.0 size=N/A time=00:07:22.65 bitrate=N/A speed=17.9x    frame=10866 fps=429 q=-0.0 size=N/A time=00:07:33.20 bitrate=N/A speed=17.9x    frame=11133 fps=431 q=-0.0 size=N/A time=00:07:44.33 bitrate=N/A speed=  18x    frame=11345 fps=431 q=-0.0 size=N/A time=00:07:53.18 bitrate=N/A speed=  18x    frame=11599 fps=432 q=-0.0 size=N/A time=00:08:03.77 bitrate=N/A speed=  18x    frame=11847 fps=433 q=-0.0 size=N/A time=00:08:14.11 bitrate=N/A speed=18.1x    frame=12106 fps=434 q=-0.0 size=N/A time=00:08:24.92 bitrate=N/A speed=18.1x    frame=12297 fps=433 q=-0.0 size=N/A time=00:08:32.88 bitrate=N/A speed=18.1x    frame=12502 fps=433 q=-0.0 size=N/A time=00:08:41.43 bitrate=N/A speed=  18x    frame=12699 fps=432 q=-0.0 size=N/A time=00:08:49.65 bitrate=N/A speed=  18x    frame=12922 fps=432 q=-0.0 size=N/A time=00:08:58.95 bitrate=N/A speed=  18x    frame=13129 fps=431 q=-0.0 size=N/A time=00:09:07.58 bitrate=N/A speed=  18x    frame=13349 fps=431 q=-0.0 size=N/A time=00:09:16.76 bitrate=N/A speed=  18x    frame=13578 fps=431 q=-0.0 size=N/A time=00:09:26.31 bitrate=N/A speed=  18x    frame=13810 fps=431 q=-0.0 size=N/A time=00:09:35.99 bitrate=N/A speed=  18x    frame=14079 fps=433 q=-0.0 size=N/A time=00:09:47.21 bitrate=N/A speed=18.1x    frame=14349 fps=434 q=-0.0 size=N/A time=00:09:58.47 bitrate=N/A speed=18.1x    frame=14635 fps=436 q=-0.0 size=N/A time=00:10:10.40 bitrate=N/A speed=18.2x    frame=14899 fps=437 q=-0.0 size=N/A time=00:10:21.41 bitrate=N/A speed=18.2x    frame=15146 fps=438 q=-0.0 size=N/A time=00:10:31.71 bitrate=N/A speed=18.3x    frame=15387 fps=438 q=-0.0 size=N/A time=00:10:41.76 bitrate=N/A speed=18.3x    frame=15626 fps=439 q=-0.0 size=N/A time=00:10:51.73 bitrate=N/A speed=18.3x    frame=15894 fps=440 q=-0.0 size=N/A time=00:11:02.91 bitrate=N/A speed=18.3x    frame=16163 fps=441 q=-0.0 size=N/A time=00:11:14.13 bitrate=N/A speed=18.4x    frame=16427 fps=442 q=-0.0 size=N/A time=00:11:25.14 bitrate=N/A speed=18.4x    frame=16696 fps=443 q=-0.0 size=N/A time=00:11:36.36 bitrate=N/A speed=18.5x    frame=16970 fps=444 q=-0.0 size=N/A time=00:11:47.79 bitrate=N/A speed=18.5x    frame=17226 fps=445 q=-0.0 size=N/A time=00:11:58.46 bitrate=N/A speed=18.6x    frame=17479 fps=445 q=-0.0 size=N/A time=00:12:09.01 bitrate=N/A speed=18.6x    frame=17749 fps=446 q=-0.0 size=N/A time=00:12:20.28 bitrate=N/A speed=18.6x    frame=18013 fps=447 q=-0.0 size=N/A time=00:12:31.29 bitrate=N/A speed=18.7x    frame=18258 fps=448 q=-0.0 size=N/A time=00:12:41.51 bitrate=N/A speed=18.7x    frame=18529 fps=449 q=-0.0 size=N/A time=00:12:52.81 bitrate=N/A speed=18.7x    frame=18780 fps=449 q=-0.0 size=N/A time=00:13:03.28 bitrate=N/A speed=18.7x    frame=19030 fps=449 q=-0.0 size=N/A time=00:13:13.70 bitrate=N/A speed=18.7x    frame=19292 fps=450 q=-0.0 size=N/A time=00:13:24.63 bitrate=N/A speed=18.8x    frame=19552 fps=451 q=-0.0 size=N/A time=00:13:35.48 bitrate=N/A speed=18.8x    frame=19808 fps=451 q=-0.0 size=N/A time=00:13:46.15 bitrate=N/A speed=18.8x    frame=20063 fps=452 q=-0.0 size=N/A time=00:13:56.79 bitrate=N/A speed=18.8x    frame=20316 fps=452 q=-0.0 size=N/A time=00:14:07.38 bitrate=N/A speed=18.9x    frame=20592 fps=453 q=-0.0 size=N/A time=00:14:18.85 bitrate=N/A speed=18.9x    frame=20859 fps=454 q=-0.0 size=N/A time=00:14:29.99 bitrate=N/A speed=18.9x    frame=21132 fps=455 q=-0.0 size=N/A time=00:14:41.38 bitrate=N/A speed=  19x    frame=21401 fps=456 q=-0.0 size=N/A time=00:14:52.60 bitrate=N/A speed=  19x    frame=21668 fps=456 q=-0.0 size=N/A time=00:15:03.73 bitrate=N/A speed=  19x    frame=21922 fps=457 q=-0.0 size=N/A time=00:15:14.33 bitrate=N/A speed=  19x    frame=22168 fps=457 q=-0.0 size=N/A time=00:15:24.59 bitrate=N/A speed=19.1x    frame=22426 fps=457 q=-0.0 size=N/A time=00:15:35.35 bitrate=N/A speed=19.1x    frame=22702 fps=458 q=-0.0 size=N/A time=00:15:46.86 bitrate=N/A speed=19.1x    frame=22980 fps=459 q=-0.0 size=N/A time=00:15:58.45 bitrate=N/A speed=19.1x    frame=23254 fps=460 q=-0.0 size=N/A time=00:16:09.88 bitrate=N/A speed=19.2x    frame=23504 fps=460 q=-0.0 size=N/A time=00:16:20.31 bitrate=N/A speed=19.2x    frame=23759 fps=460 q=-0.0 size=N/A time=00:16:30.94 bitrate=N/A speed=19.2x    frame=24036 fps=461 q=-0.0 size=N/A time=00:16:42.50 bitrate=N/A speed=19.2x    frame=24292 fps=461 q=-0.0 size=N/A time=00:16:53.17 bitrate=N/A speed=19.2x    frame=24532 fps=461 q=-0.0 size=N/A time=00:17:03.18 bitrate=N/A speed=19.2x    frame=24748 fps=461 q=-0.0 size=N/A time=00:17:12.19 bitrate=N/A speed=19.2x    frame=25004 fps=461 q=-0.0 size=N/A time=00:17:22.87 bitrate=N/A speed=19.2x    frame=25259 fps=462 q=-0.0 size=N/A time=00:17:33.51 bitrate=N/A speed=19.3x    frame=25508 fps=462 q=-0.0 size=N/A time=00:17:43.89 bitrate=N/A speed=19.3x    frame=25768 fps=462 q=-0.0 size=N/A time=00:17:54.74 bitrate=N/A speed=19.3x    frame=26012 fps=462 q=-0.0 size=N/A time=00:18:04.91 bitrate=N/A speed=19.3x    frame=26210 fps=462 q=-0.0 size=N/A time=00:18:13.17 bitrate=N/A speed=19.3x    frame=26423 fps=461 q=-0.0 size=N/A time=00:18:22.05 bitrate=N/A speed=19.2x    frame=26633 fps=461 q=-0.0 size=N/A time=00:18:30.81 bitrate=N/A speed=19.2x    frame=26837 fps=460 q=-0.0 size=N/A time=00:18:39.32 bitrate=N/A speed=19.2x    frame=27098 fps=461 q=-0.0 size=N/A time=00:18:50.21 bitrate=N/A speed=19.2x    frame=27312 fps=460 q=-0.0 size=N/A time=00:18:59.13 bitrate=N/A speed=19.2x    frame=27479 fps=459 q=-0.0 size=N/A time=00:19:06.10 bitrate=N/A speed=19.1x    frame=27675 fps=458 q=-0.0 size=N/A time=00:19:14.27 bitrate=N/A speed=19.1x    frame=27928 fps=459 q=-0.0 size=N/A time=00:19:24.83 bitrate=N/A speed=19.1x    frame=28161 fps=459 q=-0.0 size=N/A time=00:19:34.54 bitrate=N/A speed=19.1x    frame=28430 fps=459 q=-0.0 size=N/A time=00:19:45.76 bitrate=N/A speed=19.1x    frame=28681 fps=459 q=-0.0 size=N/A time=00:19:56.23 bitrate=N/A speed=19.2x    frame=28916 fps=459 q=-0.0 size=N/A time=00:20:06.03 bitrate=N/A speed=19.2x    frame=29168 fps=459 q=-0.0 size=N/A time=00:20:16.54 bitrate=N/A speed=19.2x    frame=29443 fps=460 q=-0.0 size=N/A time=00:20:28.01 bitrate=N/A speed=19.2x    frame=29702 fps=460 q=-0.0 size=N/A time=00:20:38.82 bitrate=N/A speed=19.2x    frame=29967 fps=461 q=-0.0 size=N/A time=00:20:49.87 bitrate=N/A speed=19.2x    frame=30232 fps=461 q=-0.0 size=N/A time=00:21:00.92 bitrate=N/A speed=19.2x    frame=30502 fps=462 q=-0.0 size=N/A time=00:21:12.18 bitrate=N/A speed=19.3x    frame=30765 fps=462 q=-0.0 size=N/A time=00:21:23.15 bitrate=N/A speed=19.3x    frame=31055 fps=463 q=-0.0 size=N/A time=00:21:35.25 bitrate=N/A speed=19.3x    frame=31323 fps=463 q=-0.0 size=N/A time=00:21:46.43 bitrate=N/A speed=19.3x    frame=31582 fps=463 q=-0.0 size=N/A time=00:21:57.23 bitrate=N/A speed=19.3x    frame=31847 fps=464 q=-0.0 size=N/A time=00:22:08.28 bitrate=N/A speed=19.3x    frame=32116 fps=464 q=-0.0 size=N/A time=00:22:19.50 bitrate=N/A speed=19.4x    frame=32387 fps=465 q=-0.0 size=N/A time=00:22:30.80 bitrate=N/A speed=19.4x    frame=32639 fps=465 q=-0.0 size=N/A time=00:22:41.31 bitrate=N/A speed=19.4x    frame=32903 fps=465 q=-0.0 size=N/A time=00:22:52.32 bitrate=N/A speed=19.4x    frame=33141 fps=465 q=-0.0 size=N/A time=00:23:02.25 bitrate=N/A speed=19.4x    frame=33378 fps=465 q=-0.0 size=N/A time=00:23:12.14 bitrate=N/A speed=19.4x    frame=33523 fps=464 q=-0.0 size=N/A time=00:23:18.18 bitrate=N/A speed=19.3x    frame=33693 fps=463 q=-0.0 size=N/A time=00:23:25.27 bitrate=N/A speed=19.3x    frame=33850 fps=462 q=-0.0 size=N/A time=00:23:31.82 bitrate=N/A speed=19.3x    frame=34028 fps=461 q=-0.0 size=N/A time=00:23:39.25 bitrate=N/A speed=19.2x    frame=34191 fps=460 q=-0.0 size=N/A time=00:23:46.04 bitrate=N/A speed=19.2x    frame=34359 fps=459 q=-0.0 size=N/A time=00:23:53.05 bitrate=N/A speed=19.1x    frame=34527 fps=458 q=-0.0 size=N/A time=00:24:00.06 bitrate=N/A speed=19.1x    frame=34659 fps=457 q=-0.0 size=N/A time=00:24:05.56 bitrate=N/A speed=19.1x    frame=34848 fps=456 q=-0.0 size=N/A time=00:24:13.45 bitrate=N/A speed=  19x    frame=35038 fps=456 q=-0.0 size=N/A time=00:24:21.37 bitrate=N/A speed=  19x    frame=35279 fps=456 q=-0.0 size=N/A time=00:24:31.42 bitrate=N/A speed=  19x    frame=35470 fps=455 q=-0.0 size=N/A time=00:24:39.39 bitrate=N/A speed=  19x    frame=35677 fps=455 q=-0.0 size=N/A time=00:24:48.02 bitrate=N/A speed=  19x    [Parsed_psnr_10 @ 000002481e8f5fc0] PSNR y:48.467683 u:50.206774 v:50.607206 average:49.022006 min:37.690439 max:inf
[out#0/null @ 000002481e490f40] video:15367KiB audio:279700KiB subtitle:0KiB other streams:0KiB global headers:0KiB muxing overhead: unknown
frame=35763 fps=455 q=-0.0 Lsize=N/A time=00:24:51.61 bitrate=N/A speed=  19x    
